<svg width="557" height="561" viewBox="0 0 557 561" fill="none" xmlns="http://www.w3.org/2000/svg">
<path d="M556.315 287.435C556.577 277.546 556.084 266.626 554.765 253.057C550.428 215.373 531.226 120.58 447.07 56.4854C402.145 22.2489 348.735 2.81514 292.608 0.277227C275.348 -0.491224 257.806 0.337886 240.486 2.76457C166.737 13.1791 101.432 51.814 56.5864 111.571V111.561C11.7914 171.369 -7.1893 245.1 3.12631 319.144C13.5325 393.269 51.9972 458.891 111.425 503.906C156.673 538.142 210.173 557.586 266.159 560.114C283.46 560.882 300.9 560.053 318.019 557.616C380.064 548.87 435.859 520.428 479.356 475.372C481.932 472.693 484.056 469.336 486.018 464.826C486.602 463.512 486.974 462.167 487.427 460.579L487.658 459.75C491.231 446.767 487.739 433.127 478.54 424.179C471.586 417.425 462.267 413.643 452.958 413.967C443.206 414.139 434.229 418.041 427.596 424.958C422.615 430.124 417.422 434.442 411.142 439.558L408.193 441.965L407.408 441.803C371.862 470.205 327.822 486.322 283.258 487.212L272.822 487.445L289.548 417.971C303.396 360.64 361.295 325.079 418.67 338.77L422.967 339.862L470.127 351.672C490.939 356.879 512.627 352.379 529.585 339.376C546.06 326.798 555.802 307.87 556.315 287.435ZM207.677 398.072L193.256 458.102L193.125 457.89L191.052 466.343L181.219 461.53C177.576 459.71 173.812 457.839 170.118 455.514L167.774 454.047C167.019 453.633 165.982 452.996 164.905 452.308C163.567 451.408 162.299 450.68 161.051 449.963C158.474 448.517 156.683 447.485 154.851 446.141C153.171 444.856 151.722 443.451 150.272 442.046L149.668 441.419C148.622 440.377 147.505 439.245 146.327 438.274L142.905 435.079C131.291 424.846 120.895 413.239 111.254 399.7C96.7619 379.204 86.2651 356.434 80.0355 332.015L79.4317 329.447C72.7894 301.288 74.7217 267.081 75.1444 264.311L76.4729 255.595L128.896 268.295C186.261 282.299 221.596 340.519 207.677 398.072ZM415.681 269.437C391.658 263.553 371.339 248.123 358.457 226.01C346.168 204.766 326.282 189.913 302.45 184.159C279.162 178.315 254.083 182.501 233.582 195.615C212.226 209.215 187.177 213.603 163.023 207.992L93.008 190.974L98.1608 181.692C105.326 168.639 114.595 155.808 126.481 142.471C131.694 136.677 136.152 131.935 141.044 127.547C146.166 122.835 151.128 118.72 156.14 114.979C165.831 107.87 177.566 99.7411 191.424 93.1385C202.283 87.9919 212.438 84.1496 223.377 81.0556L227.161 79.9838C234.267 77.9615 242.328 75.6663 250.51 74.5035C280.591 70.1456 357.199 66.6067 418.79 128.214L421.528 130.762C429.559 138.538 436.392 146.131 442.501 154.028L443.699 155.707C450.13 164.281 456.027 173.644 461.15 183.411L462.247 185.555C476.638 213.543 484.599 244.776 485.243 275.868L485.555 286.374L415.681 269.437Z" fill="url(#paint0_radial_2474_250770)" fill-opacity="0.1"/>
<defs>
<radialGradient id="paint0_radial_2474_250770" cx="0" cy="0" r="1" gradientUnits="userSpaceOnUse" gradientTransform="translate(101.966 88.5873) scale(550.047 552.625)">
<stop offset="0.1645" stop-color="#48D475"/>
<stop offset="0.2776" stop-color="#45D17A"/>
<stop offset="0.4049" stop-color="#3CC987"/>
<stop offset="0.539" stop-color="#2DBA9E"/>
<stop offset="0.6769" stop-color="#19A7BD"/>
<stop offset="0.8119" stop-color="#008FE3"/>
</radialGradient>
</defs>
</svg>
