<svg width="139" height="49" viewBox="0 0 139 49" fill="none" xmlns="http://www.w3.org/2000/svg">
<path d="M138.993 25.133C139.016 24.2684 138.973 23.3135 138.857 22.127C138.478 18.832 136.799 10.5434 129.441 4.93902C125.512 1.94542 120.842 0.246153 115.935 0.0242405C114.425 -0.0429521 112.892 0.0295444 111.377 0.241731C104.929 1.15237 99.2184 4.53056 95.2972 9.75567V9.75478C91.3804 14.9843 89.7207 21.4313 90.6227 27.9056C91.5326 34.387 94.8959 40.1249 100.092 44.061C104.049 47.0546 108.727 48.7547 113.622 48.9758C115.135 49.043 116.66 48.9705 118.157 48.7574C123.582 47.9926 128.46 45.5056 132.264 41.566C132.489 41.3317 132.675 41.0382 132.846 40.6439C132.897 40.529 132.93 40.4114 132.969 40.2726L132.99 40.2001C133.302 39.0649 132.997 37.8722 132.192 37.0898C131.584 36.4992 130.769 36.1685 129.955 36.1968C129.103 36.2118 128.318 36.5531 127.738 37.1578C127.302 37.6096 126.848 37.9871 126.299 38.4345L126.041 38.6449L125.973 38.6308C122.865 41.1142 119.014 42.5235 115.117 42.6013L114.205 42.6217L115.667 36.5469C116.878 31.534 121.941 28.4246 126.957 29.6217L127.333 29.7172L131.457 30.7498C133.277 31.2051 135.173 30.8117 136.656 29.6747C138.096 28.5749 138.948 26.9198 138.993 25.133ZM108.508 34.807L107.247 40.056L107.236 40.0374L107.055 40.7765L106.195 40.3557C105.876 40.1965 105.547 40.033 105.224 39.8296L105.019 39.7014C104.953 39.6652 104.863 39.6095 104.768 39.5494C104.651 39.4707 104.541 39.407 104.431 39.3443C104.206 39.2178 104.05 39.1276 103.889 39.0101C103.742 38.8978 103.616 38.7749 103.489 38.652L103.436 38.5972C103.345 38.5061 103.247 38.4071 103.144 38.3222L102.845 38.0428C101.829 37.1481 100.92 36.1332 100.077 34.9493C98.8101 33.1572 97.8923 31.1662 97.3476 29.0311L97.2948 28.8065C96.714 26.3443 96.8829 23.3533 96.9199 23.1111L97.036 22.349L101.62 23.4594C106.636 24.6839 109.725 29.7746 108.508 34.807ZM126.696 23.5593C124.595 23.0448 122.819 21.6956 121.692 19.762C120.618 17.9045 118.879 16.6058 116.795 16.1027C114.759 15.5917 112.566 15.9577 110.774 17.1044C108.906 18.2935 106.716 18.6772 104.604 18.1866L98.4819 16.6986L98.9324 15.887C99.559 14.7456 100.369 13.6237 101.409 12.4575C101.865 11.9509 102.254 11.5363 102.682 11.1526C103.13 10.7406 103.564 10.3807 104.002 10.0536C104.849 9.43208 105.876 8.72125 107.087 8.14393C108.037 7.69391 108.925 7.35795 109.881 7.08741L110.212 6.9937C110.833 6.81687 111.538 6.61618 112.254 6.51451C114.884 6.13346 121.582 5.82402 126.968 11.2109L127.207 11.4337C127.91 12.1136 128.507 12.7776 129.041 13.4681L129.146 13.6148C129.708 14.3645 130.224 15.1832 130.672 16.0373L130.768 16.2247C132.026 18.6719 132.722 21.403 132.778 24.1216L132.806 25.0402L126.696 23.5593Z" fill="url(#paint0_radial_759_44769)"/>
<path d="M33.5234 15.2356C33.1679 15.1525 32.3389 15.0022 31.9825 14.9271C31.9808 14.9262 31.979 14.9253 31.9773 14.9253C30.3889 14.5929 28.9844 14.6327 29.0047 13.341C29.0214 12.2977 30.1636 12.0502 31.5197 12.0316C32.3178 12.021 33.2788 12.1183 34.113 12.2332C35.2526 12.3888 36.327 11.6612 36.6236 10.5454L36.797 9.89383C36.9043 9.48891 36.6421 9.07868 36.2303 9.01149C34.6683 8.75598 31.0647 8.29447 28.7451 9.01503C26.3533 9.75768 25.043 11.6965 25.043 13.4657C25.043 15.1004 26.201 17.079 28.8093 17.6334C29.1657 17.7094 29.5256 17.7854 29.882 17.8606C29.8838 17.8615 29.8855 17.8623 29.8873 17.8623C31.6658 18.2125 33.6246 18.2346 33.6035 19.5254C33.5868 20.5686 32.082 20.7976 30.3449 20.7552C29.5467 20.7357 28.5858 20.6685 27.7516 20.5536C26.612 20.398 25.5375 21.1256 25.241 22.2414L25.0676 22.8929C24.9602 23.2979 25.2216 23.7081 25.6343 23.7753C27.1963 24.0308 31.1369 24.5427 33.4565 23.8213C35.8483 23.0786 37.5414 21.9505 37.5414 19.3211C37.5406 17.6882 36.2655 15.8802 33.5234 15.2356Z" fill="#00336C"/>
<path d="M52.1208 21.7346C51.7292 20.8584 50.6565 20.358 49.7343 20.6118C48.754 20.8823 47.9558 21.0052 46.341 21.0052C43.7222 21.0052 42.7401 19.4279 42.3872 18.0089H51.6236C52.5018 18.0089 53.2137 17.2937 53.2137 16.4114C53.2137 13.2285 51.0736 8.74609 46.3146 8.74609C41.5768 8.74609 39.0195 12.6954 39.0195 16.4114C39.0195 21.1431 41.8936 24.2004 46.341 24.2004C49.1491 24.2004 50.6424 23.7539 51.7987 23.3393C52.2836 23.1651 52.5124 22.6099 52.3012 22.1386L52.1208 21.7346ZM46.3137 11.9413C48.2004 11.9413 49.23 13.2993 49.7035 14.6334C49.7343 14.7209 49.6674 14.8138 49.5741 14.8138H42.462C42.9425 13.3532 44.1208 11.9413 46.3137 11.9413Z" fill="#00336C"/>
<path d="M64.5495 21.8538C64.5495 21.0802 63.8385 20.5781 63.0791 20.7071C61.1387 21.036 59.7422 20.9123 59.7422 18.8072V12.3205H62.9717C63.4496 12.3205 63.8368 11.9314 63.8368 11.4514V9.99436C63.8368 9.51428 63.4496 9.12527 62.9717 9.12527H59.7422V5.5402C59.7422 5.20954 59.4562 4.95227 59.1297 4.98763L57.8493 5.13705C56.7819 5.25728 56.1562 6.32706 56.1562 7.04408V19.4977C56.1562 21.4348 57.0072 22.5514 57.7209 23.1473C58.5648 23.851 60.0951 24.2233 61.3209 24.2233C61.7072 24.2233 62.1041 24.1861 62.5045 24.111C62.8653 24.0438 63.2234 23.9633 63.564 23.8802C64.1404 23.7388 64.5495 23.2242 64.5495 22.6274V21.8538Z" fill="#00336C"/>
<path d="M70.0293 23.9002H68.1118C67.6075 23.9002 67.1992 23.49 67.1992 22.9834V10.116C67.1992 9.60945 67.6075 9.19922 68.1118 9.19922H70.0293C70.5335 9.19922 70.9418 9.60945 70.9418 10.116V22.9834C70.9409 23.4891 70.5326 23.9002 70.0293 23.9002Z" fill="#00336C"/>
<path d="M69.0736 7.18153C70.4086 7.18153 71.4909 6.09419 71.4909 4.75288C71.4909 3.41157 70.4086 2.32422 69.0736 2.32422C67.7385 2.32422 66.6562 3.41157 66.6562 4.75288C66.6562 6.09419 67.7385 7.18153 69.0736 7.18153Z" fill="#00336C"/>
<path d="M76.9003 23.9566H74.6062C74.2067 23.9566 73.8828 23.6313 73.8828 23.2299V14.639C73.8828 12.8124 74.1169 11.511 75.3911 10.3563C77.1881 8.72957 81.1313 8.45815 83.3181 8.53507C83.7017 8.54833 83.9543 8.94972 83.861 9.3237L83.7026 10.2246C83.4219 11.3465 82.4187 12.1166 81.2677 12.1369C79.9618 12.1608 79.0193 12.4844 78.3144 13.0962C77.8437 13.5055 77.6245 14.1899 77.6245 15.3869V23.2299C77.6236 23.6313 77.2998 23.9566 76.9003 23.9566Z" fill="#00336C"/>
<path d="M83.038 46.2659H80.8327C80.4086 46.2659 80.0645 45.9202 80.0645 45.494V37.9313C80.0645 35.7051 79.6386 34.6451 77.2168 34.6451C75.7235 34.6451 74.1686 34.8148 73.0659 34.9687V45.494C73.0659 45.9202 72.7219 46.2659 72.2977 46.2659H70.0924C69.6683 46.2659 69.3242 45.9202 69.3242 45.494V33.9166C69.3242 32.6797 70.2156 31.625 71.4309 31.4278C72.9982 31.1723 75.2061 30.8867 77.2168 30.8867C80.574 30.8867 82.1685 32.4631 82.9156 33.7848C83.8071 35.3639 83.8071 37.163 83.8071 37.9313V45.494C83.8062 45.9202 83.4621 46.2659 83.038 46.2659Z" fill="#00336C"/>
<path d="M64.3285 31.3394C63.8252 31.3394 63.1661 31.5101 62.6398 32.2554C61.2979 31.6798 59.786 31.0273 58.0604 31.0273C53.5689 31.0273 50.3086 34.3454 50.3086 38.9172C50.3086 43.557 53.4378 46.6735 58.0956 46.6735C59.8864 46.6735 61.4149 46.113 62.6407 45.3951C62.6407 45.3951 63.2726 46.2429 64.5142 46.2429H65.7603C66.1043 46.2429 66.3824 45.9627 66.3824 45.6179V31.9654C66.3824 31.6197 66.1035 31.3403 65.7603 31.3403H64.3285V31.3394ZM58.0956 43.1671C56.5847 43.1671 54.0503 42.3961 54.0503 38.918C54.0503 35.8687 56.2107 34.7875 58.0604 34.7875C59.9365 34.7875 61.6076 35.5363 62.6398 36.1304V39.7403C62.6398 40.986 61.9103 42.1212 60.7716 42.6145C60.0272 42.9372 59.1208 43.1671 58.0956 43.1671Z" fill="#00336C"/>
<path d="M46.5965 46.2659H44.3913C43.9671 46.2659 43.6231 45.9202 43.6231 45.494V37.9313C43.6231 35.7051 43.1972 34.6451 40.7754 34.6451C39.2821 34.6451 37.7271 34.8148 36.6245 34.9687V45.494C36.6245 45.9202 36.2804 46.2659 35.8563 46.2659H33.651C33.2269 46.2659 32.8828 45.9202 32.8828 45.494V33.9166C32.8828 32.6797 33.7742 31.625 34.9895 31.4278C36.5568 31.1723 38.7647 30.8867 40.7754 30.8867C44.1326 30.8867 45.7271 32.4631 46.4742 33.7848C47.3657 35.3639 47.3657 37.163 47.3657 37.9313V45.494C47.3648 45.9202 47.0207 46.2659 46.5965 46.2659Z" fill="#00336C"/>
<path d="M27.8872 31.3394C27.3838 31.3394 26.7247 31.5101 26.1985 32.2554C24.8565 31.6798 23.3447 31.0273 21.619 31.0273C17.1275 31.0273 13.8672 34.3454 13.8672 38.9172C13.8672 43.557 16.9964 46.6735 21.6542 46.6735C23.445 46.6735 24.9735 46.113 26.1993 45.3951C26.1993 45.3951 26.8312 46.2429 28.0728 46.2429H29.3189C29.663 46.2429 29.941 45.9627 29.941 45.6179V31.9654C29.941 31.6197 29.6621 31.3403 29.3189 31.3403H27.8872V31.3394ZM21.6542 43.1671C20.1433 43.1671 17.6089 42.3961 17.6089 38.918C17.6089 35.8687 19.7693 34.7875 21.619 34.7875C23.4951 34.7875 25.1662 35.5363 26.1985 36.1304V39.7403C26.1985 40.986 25.4689 42.1212 24.3302 42.6145C23.5858 42.9372 22.6794 43.1671 21.6542 43.1671Z" fill="#00336C"/>
<path d="M13.1004 45.3955C13.0916 45.2408 13.0397 45.0861 12.9244 44.9499C12.6181 44.5901 12.3198 44.2382 12.0189 43.8855L7.5987 38.5109L12.2257 32.9207C12.5055 32.5812 12.4334 32.1303 12.1623 31.8651C12.0303 31.6891 11.8262 31.5662 11.571 31.5662H9.42291C8.84124 31.5662 8.29213 31.8297 7.92605 32.2832C7.84157 32.3602 7.76062 32.4415 7.6867 32.5308L4.06027 36.9098C3.99163 36.8851 3.94851 36.87 3.82971 36.8285V27.6019C3.82971 27.5471 3.82179 27.494 3.81035 27.4427C3.74787 27.0891 3.44251 26.8203 3.07292 26.8203H0.75063C0.336155 26.8203 0 27.158 0 27.5745V45.4919C0 45.8252 0.216477 46.1046 0.513913 46.2045C0.601032 46.2434 0.697831 46.2655 0.799029 46.2655H3.1178C3.47419 46.2655 3.76635 46.0011 3.81827 45.6581C3.83059 45.6051 3.83763 45.5502 3.83763 45.4928V40.6248C4.01451 40.5594 4.01715 40.5585 4.19402 40.494C5.60288 42.1641 7.0135 43.8359 8.34317 45.4123C8.623 45.7447 8.99084 45.9799 9.39739 46.1019C9.67195 46.2071 9.96498 46.2655 10.2651 46.2655H12.3295C12.8241 46.2646 13.1497 45.8278 13.1004 45.3955Z" fill="#00336C"/>
<defs>
<radialGradient id="paint0_radial_759_44769" cx="0" cy="0" r="1" gradientUnits="userSpaceOnUse" gradientTransform="translate(99.2651 7.74598) scale(48.0955 48.321)">
<stop offset="0.1645" stop-color="#48D475"/>
<stop offset="0.2776" stop-color="#45D17A"/>
<stop offset="0.4049" stop-color="#3CC987"/>
<stop offset="0.539" stop-color="#2DBA9E"/>
<stop offset="0.6769" stop-color="#19A7BD"/>
<stop offset="0.8119" stop-color="#008FE3"/>
</radialGradient>
</defs>
</svg>
