<svg width="155" height="65" viewBox="0 0 155 65" fill="none" xmlns="http://www.w3.org/2000/svg">
<path d="M146.994 33.133C147.017 32.2684 146.974 31.3135 146.858 30.127C146.479 26.832 144.8 18.5434 137.442 12.939C133.513 9.94542 128.843 8.24615 123.936 8.02424C122.426 7.95705 120.893 8.02954 119.378 8.24173C112.93 9.15237 107.219 12.5306 103.298 17.7557V17.7548C99.3813 22.9843 97.7217 29.4313 98.6237 35.9056C99.5336 42.387 102.897 48.1249 108.093 52.061C112.05 55.0546 116.728 56.7547 121.623 56.9758C123.136 57.043 124.661 56.9705 126.158 56.7574C131.583 55.9926 136.461 53.5056 140.265 49.566C140.49 49.3317 140.676 49.0382 140.847 48.6439C140.898 48.529 140.931 48.4114 140.97 48.2726L140.991 48.2001C141.303 47.0649 140.998 45.8722 140.193 45.0898C139.585 44.4992 138.77 44.1685 137.956 44.1968C137.104 44.2118 136.319 44.5531 135.739 45.1578C135.303 45.6096 134.849 45.9871 134.3 46.4345L134.042 46.6449L133.974 46.6308C130.866 49.1142 127.015 50.5235 123.118 50.6013L122.206 50.6217L123.668 44.5469C124.879 39.534 129.942 36.4246 134.958 37.6217L135.334 37.7172L139.458 38.7498C141.278 39.2051 143.174 38.8117 144.657 37.6747C146.097 36.5749 146.949 34.9198 146.994 33.133ZM116.509 42.807L115.248 48.056L115.237 48.0374L115.056 48.7765L114.196 48.3557C113.877 48.1965 113.548 48.033 113.225 47.8296L113.02 47.7014C112.954 47.6652 112.864 47.6095 112.769 47.5494C112.652 47.4707 112.542 47.407 112.432 47.3443C112.207 47.2178 112.051 47.1276 111.89 47.0101C111.743 46.8978 111.617 46.7749 111.49 46.652L111.437 46.5972C111.346 46.5061 111.248 46.4071 111.145 46.3222L110.846 46.0428C109.83 45.1481 108.921 44.1332 108.078 42.9493C106.811 41.1572 105.893 39.1662 105.349 37.0311L105.296 36.8065C104.715 34.3443 104.884 31.3533 104.921 31.1111L105.037 30.349L109.621 31.4594C114.637 32.6839 117.726 37.7746 116.509 42.807ZM134.697 31.5593C132.596 31.0448 130.82 29.6956 129.693 27.762C128.619 25.9045 126.88 24.6058 124.796 24.1027C122.76 23.5917 120.567 23.9577 118.775 25.1044C116.907 26.2935 114.717 26.6772 112.605 26.1866L106.483 24.6986L106.933 23.887C107.56 22.7456 108.37 21.6237 109.41 20.4575C109.866 19.9509 110.255 19.5363 110.683 19.1526C111.131 18.7406 111.565 18.3807 112.003 18.0536C112.85 17.4321 113.876 16.7213 115.088 16.1439C116.038 15.6939 116.926 15.358 117.882 15.0874L118.213 14.9937C118.834 14.8169 119.539 14.6162 120.255 14.5145C122.885 14.1335 129.583 13.824 134.969 19.2109L135.208 19.4337C135.91 20.1136 136.508 20.7776 137.042 21.4681L137.147 21.6148C137.709 22.3645 138.225 23.1832 138.673 24.0373L138.769 24.2247C140.027 26.6719 140.723 29.403 140.779 32.1216L140.807 33.0402L134.697 31.5593Z" fill="url(#paint0_radial_441_14189)"/>
<path d="M41.5234 23.2356C41.1679 23.1525 40.3389 23.0022 39.9825 22.9271C39.9808 22.9262 39.979 22.9253 39.9773 22.9253C38.3889 22.5929 36.9844 22.6327 37.0047 21.341C37.0214 20.2977 38.1636 20.0502 39.5197 20.0316C40.3178 20.021 41.2788 20.1183 42.113 20.2332C43.2526 20.3888 44.327 19.6612 44.6236 18.5454L44.797 17.8938C44.9043 17.4889 44.6421 17.0787 44.2303 17.0115C42.6683 16.756 39.0647 16.2945 36.7451 17.015C34.3533 17.7577 33.043 19.6965 33.043 21.4657C33.043 23.1004 34.201 25.079 36.8093 25.6334C37.1657 25.7094 37.5256 25.7854 37.882 25.8606C37.8838 25.8615 37.8855 25.8623 37.8873 25.8623C39.6658 26.2125 41.6246 26.2346 41.6035 27.5254C41.5868 28.5686 40.082 28.7976 38.3449 28.7552C37.5467 28.7357 36.5858 28.6685 35.7516 28.5536C34.612 28.398 33.5375 29.1256 33.241 30.2414L33.0676 30.8929C32.9602 31.2979 33.2216 31.7081 33.6343 31.7753C35.1963 32.0308 39.1369 32.5427 41.4565 31.8213C43.8483 31.0786 45.5414 29.9505 45.5414 27.3211C45.5406 25.6882 44.2655 23.8802 41.5234 23.2356Z" fill="#00336C"/>
<path d="M60.1208 29.7346C59.7292 28.8584 58.6565 28.358 57.7343 28.6118C56.754 28.8823 55.9558 29.0052 54.341 29.0052C51.7222 29.0052 50.7401 27.4279 50.3872 26.0089H59.6236C60.5018 26.0089 61.2137 25.2937 61.2137 24.4114C61.2137 21.2285 59.0736 16.7461 54.3146 16.7461C49.5768 16.7461 47.0195 20.6954 47.0195 24.4114C47.0195 29.1431 49.8936 32.2004 54.341 32.2004C57.1491 32.2004 58.6424 31.7539 59.7987 31.3393C60.2836 31.1651 60.5124 30.6099 60.3012 30.1386L60.1208 29.7346ZM54.3137 19.9413C56.2004 19.9413 57.23 21.2993 57.7035 22.6334C57.7343 22.7209 57.6674 22.8138 57.5741 22.8138H50.462C50.9425 21.3532 52.1208 19.9413 54.3137 19.9413Z" fill="#00336C"/>
<path d="M72.5476 29.8538C72.5476 29.0802 71.8366 28.5781 71.0771 28.7071C69.1368 29.036 67.7402 28.9123 67.7402 26.8072V20.3205H70.9698C71.4476 20.3205 71.8348 19.9314 71.8348 19.4514V17.9944C71.8348 17.5143 71.4476 17.1253 70.9698 17.1253H67.7402V13.5402C67.7402 13.2095 67.4542 12.9523 67.1278 12.9876L65.8474 13.137C64.78 13.2573 64.1543 14.3271 64.1543 15.0441V27.4977C64.1543 29.4348 65.0052 30.5514 65.7189 31.1473C66.5628 31.851 68.0931 32.2233 69.3189 32.2233C69.7052 32.2233 70.1021 32.1861 70.5025 32.111C70.8633 32.0438 71.2215 31.9633 71.562 31.8802C72.1384 31.7388 72.5476 31.2242 72.5476 30.6274V29.8538Z" fill="#00336C"/>
<path d="M78.0302 31.9002H76.1127C75.6085 31.9002 75.2002 31.49 75.2002 30.9834V18.116C75.2002 17.6094 75.6085 17.1992 76.1127 17.1992H78.0302C78.5345 17.1992 78.9428 17.6094 78.9428 18.116V30.9834C78.9419 31.4891 78.5336 31.9002 78.0302 31.9002Z" fill="#00336C"/>
<path d="M77.0726 15.1815C78.4076 15.1815 79.4899 14.0942 79.4899 12.7529C79.4899 11.4116 78.4076 10.3242 77.0726 10.3242C75.7375 10.3242 74.6553 11.4116 74.6553 12.7529C74.6553 14.0942 75.7375 15.1815 77.0726 15.1815Z" fill="#00336C"/>
<path d="M84.9003 31.9586H82.6062C82.2067 31.9586 81.8828 31.6332 81.8828 31.2319V22.6409C81.8828 20.8144 82.1169 19.5129 83.3911 18.3583C85.1881 16.7315 89.1313 16.4601 91.3181 16.537C91.7017 16.5503 91.9543 16.9517 91.861 17.3256L91.7026 18.2266C91.4219 19.3485 90.4187 20.1186 89.2677 20.1389C87.9618 20.1628 87.0193 20.4864 86.3144 21.0982C85.8437 21.5075 85.6245 22.1918 85.6245 23.3889V31.2319C85.6236 31.6332 85.2998 31.9586 84.9003 31.9586Z" fill="#00336C"/>
<path d="M91.037 54.2659H88.8317C88.4076 54.2659 88.0635 53.9202 88.0635 53.494V45.9313C88.0635 43.7051 87.6376 42.6451 85.2159 42.6451C83.7225 42.6451 82.1676 42.8148 81.065 42.9687V53.494C81.065 53.9202 80.7209 54.2659 80.2967 54.2659H78.0915C77.6673 54.2659 77.3232 53.9202 77.3232 53.494V41.9166C77.3232 40.6797 78.2147 39.625 79.4299 39.4278C80.9972 39.1723 83.2051 38.8867 85.2159 38.8867C88.573 38.8867 90.1675 40.4631 90.9147 41.7848C91.8061 43.3639 91.8061 45.163 91.8061 45.9313V53.494C91.8052 53.9202 91.4611 54.2659 91.037 54.2659Z" fill="#00336C"/>
<path d="M72.3266 39.3394C71.8232 39.3394 71.1641 39.5101 70.6379 40.2554C69.2959 39.6798 67.7841 39.0273 66.0584 39.0273C61.567 39.0273 58.3066 42.3454 58.3066 46.9172C58.3066 51.557 61.4359 54.6735 66.0936 54.6735C67.8844 54.6735 69.4129 54.113 70.6388 53.3951C70.6388 53.3951 71.2706 54.2429 72.5123 54.2429H73.7583C74.1024 54.2429 74.3805 53.9627 74.3805 53.6179V39.9654C74.3805 39.6197 74.1015 39.3403 73.7583 39.3403H72.3266V39.3394ZM66.0936 51.1671C64.5827 51.1671 62.0483 50.3961 62.0483 46.918C62.0483 43.8687 64.2087 42.7875 66.0584 42.7875C67.9346 42.7875 69.6057 43.5363 70.6379 44.1304V47.7403C70.6379 48.986 69.9084 50.1212 68.7697 50.6145C68.0252 50.9372 67.1188 51.1671 66.0936 51.1671Z" fill="#00336C"/>
<path d="M54.5975 54.2659H52.3923C51.9681 54.2659 51.624 53.9202 51.624 53.494V45.9313C51.624 43.7051 51.1981 42.6451 48.7764 42.6451C47.2831 42.6451 45.7281 42.8148 44.6255 42.9687V53.494C44.6255 53.9202 44.2814 54.2659 43.8573 54.2659H41.652C41.2279 54.2659 40.8838 53.9202 40.8838 53.494V41.9166C40.8838 40.6797 41.7752 39.625 42.9905 39.4278C44.5577 39.1723 46.7656 38.8867 48.7764 38.8867C52.1336 38.8867 53.7281 40.4631 54.4752 41.7848C55.3666 43.3639 55.3666 45.163 55.3666 45.9313V53.494C55.3658 53.9202 55.0217 54.2659 54.5975 54.2659Z" fill="#00336C"/>
<path d="M35.8891 39.3394C35.3858 39.3394 34.7266 39.5101 34.2004 40.2554C32.8584 39.6798 31.3466 39.0273 29.621 39.0273C25.1295 39.0273 21.8691 42.3454 21.8691 46.9172C21.8691 51.557 24.9984 54.6735 29.6562 54.6735C31.4469 54.6735 32.9755 54.113 34.2013 53.3951C34.2013 53.3951 34.8331 54.2429 36.0748 54.2429H37.3208C37.6649 54.2429 37.943 53.9627 37.943 53.6179V39.9654C37.943 39.6197 37.664 39.3403 37.3208 39.3403H35.8891V39.3394ZM29.6562 51.1671C28.1452 51.1671 25.6108 50.3961 25.6108 46.918C25.6108 43.8687 27.7712 42.7875 29.621 42.7875C31.4971 42.7875 33.1682 43.5363 34.2004 44.1304V47.7403C34.2004 48.986 33.4709 50.1212 32.3322 50.6145C31.5877 50.9372 30.6813 51.1671 29.6562 51.1671Z" fill="#00336C"/>
<path d="M21.1004 53.3975C21.0916 53.2428 21.0397 53.088 20.9244 52.9519C20.6181 52.592 20.3198 52.2402 20.0189 51.8874L15.5987 46.5129L20.2257 40.9226C20.5055 40.5831 20.4334 40.1322 20.1623 39.867C20.0303 39.6911 19.8262 39.5682 19.571 39.5682H17.4229C16.8412 39.5682 16.2921 39.8316 15.9261 40.2852C15.8416 40.3621 15.7606 40.4435 15.6867 40.5327L12.0603 44.9118C11.9916 44.887 11.9485 44.872 11.8297 44.8304V35.6038C11.8297 35.549 11.8218 35.496 11.8103 35.4447C11.7479 35.091 11.4425 34.8223 11.0729 34.8223H8.75063C8.33616 34.8223 8 35.16 8 35.5764V53.4938C8 53.8272 8.21648 54.1065 8.51391 54.2064C8.60103 54.2453 8.69783 54.2674 8.79903 54.2674H11.1178C11.4742 54.2674 11.7663 54.0031 11.8183 53.6601C11.8306 53.607 11.8376 53.5522 11.8376 53.4947V48.6268C12.0145 48.5614 12.0171 48.5605 12.194 48.4959C13.6029 50.166 15.0135 51.8379 16.3432 53.4143C16.623 53.7467 16.9908 53.9819 17.3974 54.1039C17.6719 54.2091 17.965 54.2674 18.2651 54.2674H20.3295C20.8241 54.2666 21.1497 53.8298 21.1004 53.3975Z" fill="#00336C"/>
<defs>
<radialGradient id="paint0_radial_441_14189" cx="0" cy="0" r="1" gradientUnits="userSpaceOnUse" gradientTransform="translate(107.266 15.746) scale(48.0955 48.321)">
<stop offset="0.1645" stop-color="#48D475"/>
<stop offset="0.2776" stop-color="#45D17A"/>
<stop offset="0.4049" stop-color="#3CC987"/>
<stop offset="0.539" stop-color="#2DBA9E"/>
<stop offset="0.6769" stop-color="#19A7BD"/>
<stop offset="0.8119" stop-color="#008FE3"/>
</radialGradient>
</defs>
</svg>
