<svg width="40" height="40" viewBox="0 0 40 40" fill="none" xmlns="http://www.w3.org/2000/svg">
<path d="M28.7501 25.0003C27.8145 25.005 26.8918 25.2197 26.0502 25.6286C25.2086 26.0375 24.4696 26.6301 23.8876 27.3628L14.7501 21.6503C15.0831 20.5755 15.0831 19.4251 14.7501 18.3503L23.8876 12.6378C24.815 13.7862 26.119 14.5692 27.5685 14.8483C29.018 15.1273 30.5195 14.8843 31.807 14.1623C33.0945 13.4403 34.0849 12.2859 34.6028 10.9036C35.1206 9.52126 35.1325 8.00028 34.6363 6.61005C34.1401 5.21982 33.1679 4.05008 31.8918 3.30804C30.6158 2.56601 29.1182 2.29957 27.6646 2.55593C26.2109 2.81228 24.8948 3.57489 23.9496 4.70865C23.0043 5.84242 22.4908 7.27416 22.5001 8.75026C22.506 9.30923 22.5902 9.86462 22.7501 10.4003L13.6126 16.1128C12.8059 15.0972 11.7033 14.3578 10.4575 13.997C9.21181 13.6362 7.88469 13.6718 6.66012 14.099C5.43556 14.5262 4.37422 15.3238 3.62322 16.3811C2.87221 17.4385 2.46875 18.7033 2.46875 20.0003C2.46875 21.2972 2.87221 22.562 3.62322 23.6194C4.37422 24.6767 5.43556 25.4743 6.66012 25.9015C7.88469 26.3287 9.21181 26.3643 10.4575 26.0035C11.7033 25.6427 12.8059 24.9033 13.6126 23.8878L22.7501 29.6003C22.5902 30.1359 22.506 30.6913 22.5001 31.2503C22.5001 32.4864 22.8667 33.6948 23.5534 34.7226C24.2402 35.7504 25.2163 36.5515 26.3583 37.0245C27.5004 37.4976 28.757 37.6213 29.9694 37.3802C31.1818 37.139 32.2954 36.5438 33.1695 35.6697C34.0436 34.7956 34.6389 33.682 34.88 32.4696C35.1212 31.2572 34.9974 30.0005 34.5244 28.8585C34.0513 27.7164 33.2502 26.7403 32.2224 26.0536C31.1946 25.3668 29.9862 25.0003 28.7501 25.0003ZM28.7501 5.00026C29.4918 5.00026 30.2168 5.22019 30.8335 5.63224C31.4502 6.0443 31.9308 6.62997 32.2147 7.31519C32.4985 8.00041 32.5727 8.75441 32.4281 9.48184C32.2834 10.2093 31.9262 10.8775 31.4018 11.4019C30.8773 11.9264 30.2091 12.2835 29.4817 12.4282C28.7543 12.5729 28.0003 12.4986 27.315 12.2148C26.6298 11.931 26.0442 11.4503 25.6321 10.8336C25.22 10.217 25.0001 9.49193 25.0001 8.75026C25.0001 7.75569 25.3952 6.80187 26.0985 6.0986C26.8017 5.39534 27.7555 5.00026 28.7501 5.00026ZM8.75011 23.7503C8.00843 23.7503 7.2834 23.5303 6.66672 23.1183C6.05004 22.7062 5.56939 22.1205 5.28556 21.4353C5.00173 20.7501 4.92747 19.9961 5.07216 19.2687C5.21686 18.5412 5.57401 17.8731 6.09846 17.3486C6.6229 16.8242 7.29109 16.467 8.01852 16.3223C8.74595 16.1776 9.49995 16.2519 10.1852 16.5357C10.8704 16.8195 11.4561 17.3002 11.8681 17.9169C12.2802 18.5336 12.5001 19.2586 12.5001 20.0003C12.5001 20.9948 12.105 21.9486 11.4018 22.6519C10.6985 23.3552 9.74467 23.7503 8.75011 23.7503ZM28.7501 35.0003C28.0084 35.0003 27.2834 34.7803 26.6667 34.3683C26.05 33.9562 25.5694 33.3705 25.2856 32.6853C25.0017 32.0001 24.9275 31.2461 25.0722 30.5187C25.2169 29.7912 25.574 29.1231 26.0985 28.5986C26.6229 28.0742 27.2911 27.717 28.0185 27.5723C28.7459 27.4276 29.5 27.5019 30.1852 27.7857C30.8704 28.0695 31.4561 28.5502 31.8681 29.1669C32.2802 29.7836 32.5001 30.5086 32.5001 31.2503C32.5001 32.2448 32.105 33.1986 31.4018 33.9019C30.6985 34.6052 29.7447 35.0003 28.7501 35.0003Z" fill="#333333"/>
</svg>
