<svg width="100" height="101" viewBox="0 0 100 101" fill="none" xmlns="http://www.w3.org/2000/svg">
<rect x="0.5" y="0.62207" width="99" height="99" rx="49.5" fill="#E6F4FD"/>
<path d="M71.9967 24.0552C72.0039 23.7822 71.9903 23.4809 71.9538 23.1063C71.8337 22.0663 71.3022 19.45 68.9729 17.681C67.7295 16.7361 66.2512 16.1998 64.6977 16.1297C64.22 16.1085 63.7344 16.1314 63.255 16.1984C61.2138 16.4858 59.4062 17.5521 58.165 19.2014V19.2011C56.9251 20.8518 56.3998 22.8867 56.6853 24.9303C56.9733 26.9761 58.038 28.7873 59.6828 30.0297C60.9352 30.9746 62.416 31.5112 63.9656 31.581C64.4445 31.6022 64.9272 31.5793 65.401 31.5121C67.1183 31.2707 68.6626 30.4857 69.8666 29.2422C69.9379 29.1682 69.9966 29.0756 70.051 28.9511C70.0671 28.9148 70.0774 28.8777 70.09 28.8339L70.0964 28.811C70.1952 28.4527 70.0986 28.0762 69.844 27.8292C69.6515 27.6428 69.3936 27.5385 69.1359 27.5474C68.866 27.5521 68.6175 27.6599 68.4339 27.8507C68.2961 27.9933 68.1523 28.1125 67.9785 28.2537L67.8969 28.3201L67.8752 28.3157C66.8913 29.0996 65.6723 29.5444 64.4389 29.5689L64.15 29.5754L64.613 27.6579C64.9963 26.0756 66.5988 25.0941 68.1869 25.472L68.3058 25.5021L69.6111 25.8281C70.1872 25.9718 70.7875 25.8476 71.2568 25.4887C71.7128 25.1416 71.9825 24.6192 71.9967 24.0552ZM62.347 27.1087L61.9478 28.7655L61.9442 28.7597L61.8868 28.9929L61.6146 28.8601C61.5138 28.8099 61.4096 28.7583 61.3074 28.6941L61.2425 28.6536C61.2216 28.6422 61.1929 28.6246 61.1631 28.6056C61.126 28.5808 61.0909 28.5607 61.0564 28.5409C60.9851 28.501 60.9355 28.4725 60.8848 28.4354C60.8383 28.3999 60.7982 28.3611 60.7581 28.3224L60.7414 28.3051C60.7124 28.2763 60.6815 28.2451 60.6489 28.2183L60.5542 28.1301C60.2327 27.8477 59.945 27.5273 59.6781 27.1536C59.277 26.588 58.9865 25.9595 58.814 25.2856L58.7973 25.2147C58.6135 24.4375 58.667 23.4934 58.6787 23.4169L58.7154 23.1764L60.1664 23.5269C61.7542 23.9134 62.7322 25.5203 62.347 27.1087ZM68.1041 23.5584C67.4392 23.396 66.8768 22.9702 66.5203 22.3599C66.1802 21.7735 65.6297 21.3636 64.9701 21.2048C64.3255 21.0435 63.6314 21.159 63.064 21.521C62.4729 21.8963 61.7795 22.0174 61.111 21.8626L59.1731 21.3929L59.3157 21.1367C59.514 20.7764 59.7706 20.4223 60.0996 20.0542C60.2439 19.8943 60.3673 19.7634 60.5026 19.6423C60.6444 19.5123 60.7817 19.3987 60.9205 19.2954C61.1887 19.0993 61.5135 18.8749 61.8971 18.6927C62.1976 18.5506 62.4787 18.4446 62.7815 18.3592L62.8862 18.3296C63.0829 18.2738 63.306 18.2104 63.5325 18.1783C64.3651 18.0581 66.4854 17.9604 68.1902 19.6607L68.266 19.7311C68.4883 19.9457 68.6774 20.1552 68.8465 20.3732L68.8796 20.4195C69.0576 20.6562 69.2209 20.9146 69.3626 21.1841L69.393 21.2433C69.7913 22.0158 70.0117 22.8778 70.0295 23.7359L70.0381 24.0259L68.1041 23.5584Z" fill="url(#paint0_radial_200_75108)"/>
<path d="M38.6102 20.9311C38.4977 20.9049 38.2353 20.8574 38.1225 20.8337C38.1219 20.8334 38.1214 20.8331 38.1208 20.8331C37.618 20.7282 37.1734 20.7408 37.1798 20.333C37.1851 20.0037 37.5467 19.9256 37.976 19.9198C38.2286 19.9164 38.5328 19.9471 38.7969 19.9834C39.1576 20.0325 39.4977 19.8028 39.5916 19.4506L39.6464 19.245C39.6804 19.1172 39.5974 18.9877 39.4671 18.9665C38.9726 18.8858 37.8319 18.7401 37.0977 18.9676C36.3406 19.202 35.9258 19.814 35.9258 20.3724C35.9258 20.8884 36.2924 21.5129 37.118 21.6879C37.2308 21.7119 37.3447 21.7359 37.4576 21.7596C37.4581 21.7599 37.4587 21.7602 37.4592 21.7602C38.0222 21.8707 38.6423 21.8777 38.6356 22.2851C38.6303 22.6144 38.1539 22.6867 37.6041 22.6733C37.3514 22.6671 37.0472 22.6459 36.7832 22.6097C36.4224 22.5605 36.0823 22.7902 35.9885 23.1424L35.9336 23.3481C35.8996 23.4759 35.9823 23.6054 36.113 23.6266C36.6074 23.7072 37.8548 23.8688 38.5891 23.6411C39.3462 23.4067 39.8821 23.0506 39.8821 22.2206C39.8818 21.7052 39.4782 21.1345 38.6102 20.9311Z" fill="#00336C"/>
<path d="M44.4987 22.9826C44.3747 22.706 44.0352 22.5481 43.7433 22.6281C43.4329 22.7135 43.1803 22.7523 42.6691 22.7523C41.8402 22.7523 41.5293 22.2545 41.4176 21.8066H44.3413C44.6193 21.8066 44.8447 21.5808 44.8447 21.3023C44.8447 20.2977 44.1672 18.8828 42.6608 18.8828C41.161 18.8828 40.3516 20.1294 40.3516 21.3023C40.3516 22.7959 41.2613 23.7609 42.6691 23.7609C43.558 23.7609 44.0307 23.6199 44.3967 23.4891C44.5502 23.4341 44.6227 23.2588 44.5558 23.1101L44.4987 22.9826ZM42.6605 19.8914C43.2577 19.8914 43.5836 20.32 43.7335 20.7411C43.7433 20.7687 43.7221 20.798 43.6926 20.798H41.4413C41.5934 20.337 41.9663 19.8914 42.6605 19.8914Z" fill="#00336C"/>
<path d="M48.4342 23.0201C48.4342 22.7759 48.2091 22.6174 47.9687 22.6581C47.3545 22.7619 46.9125 22.7229 46.9125 22.0584V20.0109H47.9348C48.086 20.0109 48.2086 19.8881 48.2086 19.7366V19.2767C48.2086 19.1252 48.086 19.0024 47.9348 19.0024H46.9125V17.8708C46.9125 17.7664 46.8219 17.6852 46.7186 17.6963L46.3133 17.7435C45.9754 17.7815 45.7773 18.1191 45.7773 18.3454V22.2764C45.7773 22.8878 46.0467 23.2402 46.2726 23.4283C46.5397 23.6505 47.0242 23.768 47.4122 23.768C47.5345 23.768 47.6601 23.7562 47.7868 23.7325C47.901 23.7113 48.0144 23.6859 48.1222 23.6597C48.3047 23.615 48.4342 23.4526 48.4342 23.2642V23.0201Z" fill="#00336C"/>
<path d="M50.1654 23.6657H49.5584C49.3988 23.6657 49.2695 23.5362 49.2695 23.3763V19.3148C49.2695 19.1549 49.3988 19.0254 49.5584 19.0254H50.1654C50.325 19.0254 50.4542 19.1549 50.4542 19.3148V23.3763C50.4539 23.5359 50.3247 23.6657 50.1654 23.6657Z" fill="#00336C"/>
<path d="M49.8628 18.3887C50.2854 18.3887 50.628 18.0454 50.628 17.6221C50.628 17.1987 50.2854 16.8555 49.8628 16.8555C49.4402 16.8555 49.0977 17.1987 49.0977 17.6221C49.0977 18.0454 49.4402 18.3887 49.8628 18.3887Z" fill="#00336C"/>
<path d="M52.3419 23.6839H51.6157C51.4892 23.6839 51.3867 23.5812 51.3867 23.4545V20.7428C51.3867 20.1663 51.4608 19.7555 51.8642 19.391C52.433 18.8776 53.6812 18.7919 54.3734 18.8162C54.4949 18.8204 54.5748 18.9471 54.5453 19.0651L54.4951 19.3495C54.4063 19.7036 54.0887 19.9467 53.7244 19.9531C53.311 19.9606 53.0127 20.0628 52.7895 20.2559C52.6405 20.3851 52.5711 20.6011 52.5711 20.9789V23.4545C52.5709 23.5812 52.4684 23.6839 52.3419 23.6839Z" fill="#00336C"/>
<path d="M54.2863 30.7254H53.5883C53.454 30.7254 53.3451 30.6163 53.3451 30.4818V28.0947C53.3451 27.392 53.2103 27.0574 52.4437 27.0574C51.971 27.0574 51.4788 27.111 51.1297 27.1595V30.4818C51.1297 30.6163 51.0208 30.7254 50.8866 30.7254H50.1885C50.0542 30.7254 49.9453 30.6163 49.9453 30.4818V26.8275C49.9453 26.437 50.2275 26.1041 50.6122 26.0419C51.1083 25.9612 51.8072 25.8711 52.4437 25.8711C53.5064 25.8711 54.0111 26.3687 54.2476 26.7859C54.5298 27.2843 54.5298 27.8522 54.5298 28.0947V30.4818C54.5295 30.6163 54.4206 30.7254 54.2863 30.7254Z" fill="#00336C"/>
<path d="M48.3637 26.0145C48.2044 26.0145 47.9958 26.0684 47.8292 26.3036C47.4044 26.122 46.9258 25.916 46.3796 25.916C44.9578 25.916 43.9258 26.9633 43.9258 28.4064C43.9258 29.8709 44.9163 30.8546 46.3907 30.8546C46.9576 30.8546 47.4414 30.6777 47.8295 30.4511C47.8295 30.4511 48.0295 30.7187 48.4225 30.7187H48.8169C48.9258 30.7187 49.0139 30.6303 49.0139 30.5214V26.2121C49.0139 26.103 48.9256 26.0148 48.8169 26.0148H48.3637V26.0145ZM46.3907 29.7479C45.9124 29.7479 45.1102 29.5045 45.1102 28.4067C45.1102 27.4442 45.7941 27.1029 46.3796 27.1029C46.9735 27.1029 47.5024 27.3392 47.8292 27.5268V28.6662C47.8292 29.0594 47.5983 29.4177 47.2378 29.5734C47.0021 29.6753 46.7152 29.7479 46.3907 29.7479Z" fill="#00336C"/>
<path d="M42.7512 30.7254H42.0531C41.9188 30.7254 41.8099 30.6163 41.8099 30.4818V28.0947C41.8099 27.392 41.6751 27.0574 40.9085 27.0574C40.4358 27.0574 39.9436 27.111 39.5946 27.1595V30.4818C39.5946 30.6163 39.4857 30.7254 39.3514 30.7254H38.6533C38.5191 30.7254 38.4102 30.6163 38.4102 30.4818V26.8275C38.4102 26.437 38.6923 26.1041 39.077 26.0419C39.5731 25.9612 40.272 25.8711 40.9085 25.8711C41.9712 25.8711 42.476 26.3687 42.7124 26.7859C42.9946 27.2843 42.9946 27.8522 42.9946 28.0947V30.4818C42.9943 30.6163 42.8854 30.7254 42.7512 30.7254Z" fill="#00336C"/>
<path d="M36.8286 26.0145C36.6692 26.0145 36.4606 26.0684 36.294 26.3036C35.8692 26.122 35.3907 25.916 34.8444 25.916C33.4227 25.916 32.3906 26.9633 32.3906 28.4064C32.3906 29.8709 33.3812 30.8546 34.8556 30.8546C35.4224 30.8546 35.9063 30.6777 36.2943 30.4511C36.2943 30.4511 36.4943 30.7187 36.8873 30.7187H37.2818C37.3907 30.7187 37.4787 30.6303 37.4787 30.5214V26.2121C37.4787 26.103 37.3904 26.0148 37.2818 26.0148H36.8286V26.0145ZM34.8556 29.7479C34.3773 29.7479 33.575 29.5045 33.575 28.4067C33.575 27.4442 34.2589 27.1029 34.8444 27.1029C35.4383 27.1029 35.9673 27.3392 36.294 27.5268V28.6662C36.294 29.0594 36.0631 29.4177 35.7027 29.5734C35.467 29.6753 35.1801 29.7479 34.8556 29.7479Z" fill="#00336C"/>
<path d="M32.1469 30.4511C32.1441 30.4022 32.1276 30.3534 32.0911 30.3104C31.9942 30.1968 31.8998 30.0858 31.8045 29.9744L30.4053 28.278L31.87 26.5134C31.9586 26.4063 31.9357 26.264 31.8499 26.1802C31.8081 26.1247 31.7435 26.0859 31.6627 26.0859H30.9828C30.7986 26.0859 30.6248 26.1691 30.509 26.3122C30.4822 26.3365 30.4566 26.3622 30.4332 26.3904L29.2853 27.7726C29.2635 27.7648 29.2499 27.76 29.2123 27.7469V24.8346C29.2123 24.8173 29.2098 24.8005 29.2061 24.7844C29.1864 24.6727 29.0897 24.5879 28.9727 24.5879H28.2376C28.1064 24.5879 28 24.6945 28 24.8259V30.4815C28 30.5867 28.0685 30.6749 28.1627 30.7064C28.1903 30.7187 28.2209 30.7257 28.2529 30.7257H28.9869C29.0997 30.7257 29.1922 30.6422 29.2087 30.5339C29.2126 30.5172 29.2148 30.4999 29.2148 30.4817V28.9452C29.2708 28.9246 29.2716 28.9243 29.3276 28.9039C29.7736 29.4311 30.2201 29.9588 30.641 30.4564C30.7296 30.5613 30.846 30.6355 30.9747 30.674C31.0616 30.7072 31.1544 30.7257 31.2494 30.7257H31.9028C32.0594 30.7254 32.1625 30.5875 32.1469 30.4511Z" fill="#00336C"/>
<rect x="27" y="40.1221" width="45" height="20" rx="10" fill="#008FEA"/>
<path d="M37.2503 54.1221V46.3671H40.6163C41.467 46.3671 42.1233 46.5797 42.5853 47.0051C43.0473 47.4304 43.2783 48.0244 43.2783 48.7871C43.2783 49.5497 43.0473 50.1474 42.5853 50.5801C42.1233 51.0054 41.467 51.2181 40.6163 51.2181H38.6583V54.1221H37.2503ZM38.6583 50.1071H40.3963C41.4083 50.1071 41.9143 49.6671 41.9143 48.7871C41.9143 47.9144 41.4083 47.4781 40.3963 47.4781H38.6583V50.1071ZM42.8395 54.1221L46.3485 46.3671H47.5035L51.0125 54.1221H49.5825L48.8125 52.3291H45.0285L44.2695 54.1221H42.8395ZM46.9095 47.8961L45.5125 51.2071H48.3285L46.9315 47.8961H46.9095ZM51.916 54.1221V46.3671H53.324V54.1221H51.916ZM55.0648 54.1221V46.3671H57.9468C59.2448 46.3671 60.2458 46.7007 60.9498 47.3681C61.6611 48.0354 62.0168 48.9924 62.0168 50.2391C62.0168 51.4784 61.6611 52.4354 60.9498 53.1101C60.2458 53.7847 59.2448 54.1221 57.9468 54.1221H55.0648ZM56.4728 52.9561H57.8588C59.6481 52.9561 60.5428 52.0504 60.5428 50.2391C60.5428 48.4351 59.6481 47.5331 57.8588 47.5331H56.4728V52.9561Z" fill="white"/>
<path d="M25.924 80.1221V71.6621H29.596C30.524 71.6621 31.24 71.8861 31.744 72.3341C32.248 72.7741 32.5 73.3941 32.5 74.1941C32.5 74.8261 32.336 75.3501 32.008 75.7661C31.68 76.1741 31.208 76.4501 30.592 76.5941C31 76.7221 31.336 77.0301 31.6 77.5181L33.016 80.1221H31.324L29.86 77.4221C29.716 77.1581 29.544 76.9781 29.344 76.8821C29.152 76.7861 28.904 76.7381 28.6 76.7381H27.46V80.1221H25.924ZM27.46 75.5981H29.332C30.452 75.5981 31.012 75.1421 31.012 74.2301C31.012 73.3261 30.452 72.8741 29.332 72.8741H27.46V75.5981ZM34.1506 80.1221V71.6621H39.7786V72.8861H35.6266V75.2141H39.5146V76.4381H35.6266V78.8981H39.7786V80.1221H34.1506ZM45.235 80.2421C44.355 80.2421 43.599 80.0661 42.967 79.7141C42.343 79.3541 41.863 78.8501 41.527 78.2021C41.191 77.5461 41.023 76.7741 41.023 75.8861C41.023 74.9981 41.191 74.2301 41.527 73.5821C41.863 72.9341 42.343 72.4341 42.967 72.0821C43.599 71.7221 44.355 71.5421 45.235 71.5421C45.803 71.5421 46.339 71.6301 46.843 71.8061C47.355 71.9821 47.775 72.2341 48.103 72.5621L47.599 73.7861C47.239 73.4821 46.871 73.2621 46.495 73.1261C46.119 72.9821 45.715 72.9101 45.283 72.9101C44.427 72.9101 43.775 73.1701 43.327 73.6901C42.879 74.2021 42.655 74.9341 42.655 75.8861C42.655 76.8381 42.879 77.5741 43.327 78.0941C43.775 78.6141 44.427 78.8741 45.283 78.8741C45.715 78.8741 46.119 78.8061 46.495 78.6701C46.871 78.5261 47.239 78.3021 47.599 77.9981L48.103 79.2221C47.775 79.5421 47.355 79.7941 46.843 79.9781C46.339 80.1541 45.803 80.2421 45.235 80.2421ZM49.4435 80.1221V71.6621H55.0715V72.8861H50.9195V75.2141H54.8075V76.4381H50.9195V78.8981H55.0715V80.1221H49.4435ZM56.6037 80.1221V71.6621H58.1397V80.1221H56.6037ZM59.9787 80.1221V71.6621H63.6507C64.5787 71.6621 65.2947 71.8941 65.7987 72.3581C66.3027 72.8221 66.5547 73.4701 66.5547 74.3021C66.5547 75.1341 66.3027 75.7861 65.7987 76.2581C65.2947 76.7221 64.5787 76.9541 63.6507 76.9541H61.5147V80.1221H59.9787ZM61.5147 75.7421H63.4107C64.5147 75.7421 65.0667 75.2621 65.0667 74.3021C65.0667 73.3501 64.5147 72.8741 63.4107 72.8741H61.5147V75.7421ZM69.6359 80.1221V72.9461H66.7319V71.6621H74.0759V72.9461H71.1719V80.1221H69.6359Z" fill="black"/>
<rect x="0.5" y="0.62207" width="99" height="99" rx="49.5" stroke="#00336C" stroke-dasharray="4 4"/>
<defs>
<radialGradient id="paint0_radial_200_75108" cx="0" cy="0" r="1" gradientUnits="userSpaceOnUse" gradientTransform="translate(59.421 18.567) scale(15.2244 15.2523)">
<stop offset="0.1645" stop-color="#48D475"/>
<stop offset="0.2776" stop-color="#45D17A"/>
<stop offset="0.4049" stop-color="#3CC987"/>
<stop offset="0.539" stop-color="#2DBA9E"/>
<stop offset="0.6769" stop-color="#19A7BD"/>
<stop offset="0.8119" stop-color="#008FE3"/>
</radialGradient>
</defs>
</svg>
